<svg width="40" height="41" viewBox="0 0 40 41" fill="none" xmlns="http://www.w3.org/2000/svg">
<rect width="40" height="40" rx="2" fill="#F44366"/>
<path d="M25.5725 29.8C25.5725 31.1467 25.0792 32.2067 24.0925 32.98C23.1058 33.74 21.8458 34.12 20.3125 34.12C19.0992 34.12 17.9258 33.7867 16.7925 33.12C16.2325 32.7733 15.7725 32.2867 15.4125 31.66C15.0525 31.02 14.8725 30.2933 14.8725 29.48L17.3925 29.36C17.3925 30.08 17.6992 30.64 18.3125 31.04C18.9258 31.44 19.6058 31.64 20.3525 31.64C22.0192 31.64 22.8525 31.0533 22.8525 29.88C22.8525 28.92 22.2858 28.3533 21.1525 28.18L18.8325 27.94C17.6725 27.7667 16.7525 27.3533 16.0725 26.7C15.3925 26.0467 15.0525 25.1067 15.0525 23.88C15.0525 22.6533 15.5392 21.64 16.5125 20.84C17.4858 20.04 18.7125 19.64 20.1925 19.64C21.6858 19.64 22.8858 20.02 23.7925 20.78C24.6992 21.5267 25.1525 22.4933 25.1525 23.68L22.6725 23.8C22.4458 22.64 21.6658 22.06 20.3325 22.06C19.5192 22.06 18.8792 22.2333 18.4125 22.58C17.9592 22.9267 17.7325 23.34 17.7325 23.82C17.7325 24.2867 17.8992 24.66 18.2325 24.94C18.5658 25.2067 18.9792 25.3733 19.4725 25.44L21.7525 25.68C24.2992 26.0267 25.5725 27.4 25.5725 29.8ZM35.7689 21C36.5956 21.8133 37.0089 23.0133 37.0089 24.6C37.0089 26.1867 36.5956 27.3933 35.7689 28.22C34.9556 29.0333 33.8022 29.44 32.3089 29.44H29.5689V34H26.7889V19.76H32.3089C33.8022 19.76 34.9556 20.1733 35.7689 21ZM34.2289 24.6C34.2289 23.0267 33.5422 22.24 32.1689 22.24H29.5689V26.94H32.1689C32.8356 26.94 33.3422 26.76 33.6889 26.4C34.0489 26.04 34.2289 25.44 34.2289 24.6Z" fill="#333438"/>
</svg>
