<svg width="314" height="150" viewBox="0 0 314 150" fill="none" xmlns="http://www.w3.org/2000/svg">
<g clip-path="url(#clip0_301_18)">
<path d="M176.56 134.286L164 0.251617L314 0.520971L300.719 134.286L239.566 149.748L176.56 134.286Z" fill="#1B73BA"/>
<path d="M239.566 136.804V13.0169L301.337 13.1964L290.322 123.948L239.566 136.804Z" fill="#1C88C7"/>
<path d="M285.997 28.8391H190.973L193.548 45.0193H238.64L194.269 61.6506L196.842 77.2921H262.216L259.848 99.1362L237.713 102.912L217.638 98.418L216.094 86.0118H197.665L200.135 111.813L239.669 121.431L277.556 110.914L282.395 60.4813H242.345L285.996 44.6602L285.997 28.8391Z" fill="white"/>
</g>
<g clip-path="url(#clip1_301_18)">
<path d="M12.56 134.287L-6.10352e-05 0.250549L150 0.519903L136.719 134.287L75.5661 149.749L12.56 134.287Z" fill="#E34F26"/>
<path d="M75.5662 136.805V13.0158L137.337 13.1954L126.322 123.949L75.5662 136.805Z" fill="#EF652A"/>
<path d="M120.351 43.9408L122.1 27.5789H27.0762L32.3262 77.7421H97.9065L95.3347 99.1373L74.3323 104.081L53.0214 98.6873L51.8891 85.922H33.0472L35.6214 111.992L74.3311 121.431L113.349 111.992L118.599 61.1108H49.7262L47.7702 43.9408H120.351Z" fill="white"/>
</g>
<defs>
<clipPath id="clip0_301_18">
<rect width="150" height="150" fill="white" transform="translate(164)"/>
</clipPath>
<clipPath id="clip1_301_18">
<rect width="150" height="150" fill="white"/>
</clipPath>
</defs>
</svg>
